<svg width="24" height="26" viewBox="0 0 24 26" fill="none" xmlns="http://www.w3.org/2000/svg">
<g filter="url(#filter0_ii_87_38)">
<path d="M0.463001 0.396975C0.172001 0.704975 -4.27246e-07 1.18298 -4.27246e-07 1.80198V23.918C-4.27246e-07 24.538 0.172001 25.015 0.463001 25.323L0.537 25.395L12.926 13.006V12.86V12.714L0.537 0.323975L0.463001 0.396975Z" fill="url(#paint0_linear_87_38)"/>
<path d="M17.0548 17.137L12.9258 13.006V12.86V12.714L17.0558 8.58398L17.1488 8.63698L22.0418 11.417C23.4388 12.211 23.4388 13.51 22.0418 14.305L17.1488 17.085L17.0548 17.137Z" fill="url(#paint1_linear_87_38)"/>
<g filter="url(#filter1_i_87_38)">
<path d="M17.1489 17.0841L12.9249 12.8601L0.462891 25.3231C0.922891 25.8111 1.68389 25.8711 2.54089 25.3851L17.1489 17.0841Z" fill="url(#paint2_linear_87_38)"/>
</g>
<path d="M17.1489 8.63608L2.54089 0.336075C1.68389 -0.150925 0.922891 -0.0899245 0.462891 0.398075L12.9259 12.8611L17.1489 8.63608Z" fill="url(#paint3_linear_87_38)"/>
</g>
<defs>
<filter id="filter0_ii_87_38" x="0" y="0" width="23.0898" height="25.7207" filterUnits="userSpaceOnUse" color-interpolation-filters="sRGB">
<feFlood flood-opacity="0" result="BackgroundImageFix"/>
<feBlend mode="normal" in="SourceGraphic" in2="BackgroundImageFix" result="shape"/>
<feColorMatrix in="SourceAlpha" type="matrix" values="0 0 0 0 0 0 0 0 0 0 0 0 0 0 0 0 0 0 127 0" result="hardAlpha"/>
<feOffset dy="-0.15"/>
<feComposite in2="hardAlpha" operator="arithmetic" k2="-1" k3="1"/>
<feColorMatrix type="matrix" values="0 0 0 0 0 0 0 0 0 0 0 0 0 0 0 0 0 0 0.12 0"/>
<feBlend mode="normal" in2="shape" result="effect1_innerShadow_87_38"/>
<feColorMatrix in="SourceAlpha" type="matrix" values="0 0 0 0 0 0 0 0 0 0 0 0 0 0 0 0 0 0 127 0" result="hardAlpha"/>
<feOffset dy="0.15"/>
<feComposite in2="hardAlpha" operator="arithmetic" k2="-1" k3="1"/>
<feColorMatrix type="matrix" values="0 0 0 0 1 0 0 0 0 1 0 0 0 0 1 0 0 0 0.25 0"/>
<feBlend mode="normal" in2="effect1_innerShadow_87_38" result="effect2_innerShadow_87_38"/>
</filter>
<filter id="filter1_i_87_38" x="0.462891" y="12.8601" width="16.6855" height="12.8606" filterUnits="userSpaceOnUse" color-interpolation-filters="sRGB">
<feFlood flood-opacity="0" result="BackgroundImageFix"/>
<feBlend mode="normal" in="SourceGraphic" in2="BackgroundImageFix" result="shape"/>
<feColorMatrix in="SourceAlpha" type="matrix" values="0 0 0 0 0 0 0 0 0 0 0 0 0 0 0 0 0 0 127 0" result="hardAlpha"/>
<feOffset dy="-0.15"/>
<feComposite in2="hardAlpha" operator="arithmetic" k2="-1" k3="1"/>
<feColorMatrix type="matrix" values="0 0 0 0 0 0 0 0 0 0 0 0 0 0 0 0 0 0 0.08 0"/>
<feBlend mode="normal" in2="shape" result="effect1_innerShadow_87_38"/>
</filter>
<linearGradient id="paint0_linear_87_38" x1="11.8278" y1="1.56797" x2="-4.9542" y2="18.35" gradientUnits="userSpaceOnUse">
<stop stop-color="#00A0FF"/>
<stop offset="0.0066" stop-color="#00A1FF"/>
<stop offset="0.2601" stop-color="#00BEFF"/>
<stop offset="0.5122" stop-color="#00D2FF"/>
<stop offset="0.7604" stop-color="#00DFFF"/>
<stop offset="1" stop-color="#00E3FF"/>
</linearGradient>
<linearGradient id="paint1_linear_87_38" x1="23.8603" y1="12.86" x2="-0.335618" y2="12.86" gradientUnits="userSpaceOnUse">
<stop stop-color="#FFE000"/>
<stop offset="0.4087" stop-color="#FFBD00"/>
<stop offset="0.7754" stop-color="#FFA500"/>
<stop offset="1" stop-color="#FF9C00"/>
</linearGradient>
<linearGradient id="paint2_linear_87_38" x1="14.855" y1="15.154" x2="-7.90351" y2="37.9125" gradientUnits="userSpaceOnUse">
<stop stop-color="#FF3A44"/>
<stop offset="1" stop-color="#C31162"/>
</linearGradient>
<linearGradient id="paint3_linear_87_38" x1="-2.67571" y1="-6.96412" x2="7.48659" y2="3.19818" gradientUnits="userSpaceOnUse">
<stop stop-color="#32A071"/>
<stop offset="0.0685" stop-color="#2DA771"/>
<stop offset="0.4762" stop-color="#15CF74"/>
<stop offset="0.8009" stop-color="#06E775"/>
<stop offset="1" stop-color="#00F076"/>
</linearGradient>
</defs>
</svg>
