<svg width="20" height="20" viewBox="0 0 20 20" fill="none" xmlns="http://www.w3.org/2000/svg">
<path d="M15.7163 8.725C15.0709 8.78502 14.4214 8.6681 13.8375 8.38679C13.2536 8.10548 12.7574 7.67042 12.4021 7.12833L12.4029 12.6225C12.4029 13.4257 12.1648 14.2108 11.7185 14.8786C11.2723 15.5464 10.6381 16.0669 9.8961 16.3742C9.15408 16.6816 8.33758 16.762 7.54986 16.6053C6.76213 16.4486 6.03856 16.0619 5.47064 15.4939C4.90272 14.926 4.51597 14.2025 4.35928 13.4147C4.20259 12.627 4.28301 11.8105 4.59036 11.0685C4.89772 10.3265 5.41821 9.69225 6.08601 9.24604C6.75381 8.79983 7.53893 8.56167 8.34209 8.56167C8.42709 8.56167 8.51042 8.57 8.59375 8.575V10.575C8.51042 10.5658 8.42792 10.55 8.34209 10.55C7.79242 10.55 7.26528 10.7684 6.87661 11.157C6.48794 11.5457 6.26959 12.0728 6.26959 12.6225C6.26959 13.1722 6.48794 13.6993 6.87661 14.088C7.26528 14.4766 7.79242 14.695 8.34209 14.695C9.48709 14.695 10.4979 13.7933 10.4979 12.6483L10.5179 3.31833H12.4321C12.5196 4.15016 12.8967 4.92475 13.4975 5.50666C14.0983 6.08858 14.8846 6.44077 15.7188 6.50167V8.725" fill="white"/>
</svg>
