<svg width="20" height="20" viewBox="0 0 20 20" fill="none" xmlns="http://www.w3.org/2000/svg">
<path d="M10 2.5C7.9625 2.5 7.7075 2.50875 6.9075 2.545C6.11 2.58125 5.56375 2.70875 5.0875 2.89375C4.58677 3.08168 4.13325 3.37692 3.75875 3.75875C3.37692 4.13325 3.08168 4.58677 2.89375 5.0875C2.70875 5.565 2.58125 6.11 2.545 6.9075C2.50875 7.7075 2.5 7.9625 2.5 10C2.5 12.0375 2.50875 12.2925 2.545 13.0925C2.58125 13.8912 2.70875 14.4363 2.89375 14.9125C3.085 15.4062 3.34125 15.8238 3.75875 16.2413C4.17625 16.6587 4.59375 16.915 5.0875 17.1063C5.565 17.2913 6.11 17.4187 6.9075 17.455C7.7075 17.4913 7.9625 17.5 10 17.5C12.0375 17.5 12.2925 17.4913 13.0925 17.455C13.89 17.4187 14.4363 17.2913 14.9125 17.1063C15.4132 16.9183 15.8668 16.6231 16.2413 16.2413C16.6587 15.8238 16.915 15.4062 17.1063 14.9125C17.2913 14.435 17.4187 13.89 17.455 13.0925C17.4913 12.2925 17.5 12.0375 17.5 10C17.5 7.9625 17.4913 7.7075 17.455 6.9075C17.4187 6.11 17.2913 5.56375 17.1063 5.0875C16.9183 4.58677 16.6231 4.13325 16.2413 3.75875C15.8668 3.37692 15.4132 3.08168 14.9125 2.89375C14.435 2.70875 13.89 2.58125 13.0925 2.545C12.2925 2.50875 12.0375 2.5 10 2.5ZM10 3.85125C12.0025 3.85125 12.24 3.85875 13.0312 3.895C13.7613 3.92875 14.1587 4.05 14.4237 4.15375C14.7737 4.29 15.0238 4.4525 15.2863 4.715C15.5487 4.9775 15.7113 5.2275 15.8475 5.5775C15.95 5.84125 16.0725 6.23875 16.1063 6.97C16.1413 7.76 16.1487 7.9975 16.1487 10C16.1487 12.0025 16.1412 12.24 16.105 13.0312C16.0712 13.7625 15.9488 14.1587 15.8463 14.4237C15.71 14.7737 15.5475 15.0238 15.285 15.2863C15.0225 15.5487 14.7725 15.7113 14.4225 15.8475C14.1588 15.95 13.7612 16.0725 13.03 16.1063C12.24 16.1413 12.0025 16.1487 10 16.1487C7.9975 16.1487 7.76 16.1412 6.96875 16.105C6.2375 16.0712 5.84125 15.9488 5.57625 15.8463C5.25048 15.7259 4.95577 15.5341 4.71375 15.285C4.45125 15.0225 4.28875 14.7725 4.1525 14.4225C4.05 14.1588 3.92875 13.7625 3.895 13.0312C3.85875 12.24 3.85125 12.0025 3.85125 10C3.85125 7.9975 3.85875 7.76 3.895 6.96875C3.92875 6.2375 4.05 5.84125 4.15375 5.57625C4.29 5.22625 4.4525 4.97625 4.715 4.71375C4.9775 4.45125 5.2275 4.28875 5.5775 4.1525C5.84125 4.05 6.23875 3.9275 6.97 3.89375C7.76 3.85875 7.9975 3.85125 10 3.85125Z" fill="white"/>
<path d="M9.98211 12.4775C9.32073 12.4775 8.68644 12.2148 8.21877 11.7471C7.7511 11.2794 7.48836 10.6451 7.48836 9.98375C7.48836 9.32237 7.7511 8.68807 8.21877 8.2204C8.68644 7.75273 9.32073 7.49 9.98211 7.49C10.6435 7.49 11.2778 7.75273 11.7455 8.2204C12.2131 8.68807 12.4759 9.32237 12.4759 9.98375C12.4759 10.6451 12.2131 11.2794 11.7455 11.7471C11.2778 12.2148 10.6435 12.4775 9.98211 12.4775ZM9.98211 6.14C9.47176 6.13079 8.96469 6.22336 8.49051 6.4123C8.01633 6.60124 7.58454 6.88276 7.22037 7.24042C6.85619 7.59809 6.56693 8.02472 6.36947 8.49542C6.17201 8.96612 6.07031 9.47144 6.07031 9.98187C6.07031 10.4923 6.17201 10.9976 6.36947 11.4683C6.56693 11.939 6.85619 12.3657 7.22037 12.7233C7.58454 13.081 8.01633 13.3625 8.49051 13.5514C8.96469 13.7404 9.47176 13.833 9.98211 13.8237C10.989 13.8056 11.9486 13.3928 12.6543 12.6743C13.3599 11.9558 13.7553 10.989 13.7553 9.98187C13.7553 8.97478 13.3599 8.00794 12.6543 7.28943C11.9486 6.57092 10.989 6.15816 9.98211 6.14ZM13.9771 6.88625C13.7391 6.88625 13.5108 6.79169 13.3425 6.62338C13.1742 6.45506 13.0796 6.22678 13.0796 5.98875C13.0796 5.75072 13.1742 5.52244 13.3425 5.35412C13.5108 5.18581 13.7391 5.09125 13.9771 5.09125C14.2151 5.09125 14.4434 5.18581 14.6117 5.35412C14.7801 5.52244 14.8746 5.75072 14.8746 5.98875C14.8746 6.22678 14.7801 6.45506 14.6117 6.62338C14.4434 6.79169 14.2151 6.88625 13.9771 6.88625Z" fill="white"/>
</svg>
