<svg width="20" height="20" viewBox="0 0 20 20" fill="none" xmlns="http://www.w3.org/2000/svg">
<path d="M10.0003 4.16667C10.0003 4.16667 4.78366 4.16667 3.47949 4.51C2.77949 4.70167 2.20283 5.27833 2.01033 5.9925C1.66699 7.29583 1.66699 10 1.66699 10C1.66699 10 1.66699 12.7175 2.01033 14.0083C2.20199 14.7217 2.76533 15.2842 3.47949 15.4767C4.79699 15.8333 10.0003 15.8333 10.0003 15.8333C10.0003 15.8333 15.217 15.8333 16.5212 15.49C16.8729 15.3947 17.1935 15.209 17.4512 14.9514C17.709 14.6939 17.8948 14.3733 17.9903 14.0217C18.3337 12.7175 18.3337 10.0133 18.3337 10.0133C18.3337 10.0133 18.347 7.29667 17.9903 5.9925C17.895 5.6407 17.7092 5.31998 17.4514 5.06224C17.1937 4.8045 16.873 4.61871 16.5212 4.52333C15.217 4.16667 10.0003 4.16667 10.0003 4.16667ZM8.33866 7.5025L12.677 10L8.33866 12.4975V7.5025Z" fill="white"/>
</svg>
